<svg xmlns="http://www.w3.org/2000/svg" xmlns:xlink="http://www.w3.org/1999/xlink" version="1.1" x="0px" y="0px" viewBox="0 0 100 125" enable-background="new 0 0 100 100" xml:space="preserve"><path d="M25.768,91.111c-2.954,0-5.936-0.665-8.732-2.07c-4.778-2.401-8.304-6.575-9.928-11.754  c-1.617-5.159-1.151-10.699,1.311-15.6c1.528-3.042,5.719-10.3,11.612-12.017c2.25-0.656,4.491-0.375,6.479,0.813  c2.021,1.207,2.988,2.139,3.841,2.96c0.656,0.632,1.207,1.163,2.23,1.782c5.348-5.849,10.607-14.722,12.78-25.073  c-10.426,9.632-22.653,7.598-23.232,7.493c-0.945-0.168-1.578-1.067-1.418-2.014c0.052-0.309,1.338-7.616,6.826-12.133  c4.167-3.43,13.92-3.343,18.845-1.891c0.081-2.815-0.092-5.702-0.567-8.631c-1.661-0.39-3.371-0.594-5.116-0.594  c-0.966,0-1.75-0.784-1.75-1.75s0.784-1.75,1.75-1.75c2.385,0,4.71,0.331,6.951,0.958c0.12,0.021,0.236,0.055,0.348,0.1  c14.024,4.135,24.628,19.922,25.292,38.981c0.977-0.174,1.845-0.475,2.746-0.788c1.467-0.51,2.984-1.037,5.009-1.081  c3.234-0.069,5.905,0.915,7.964,2.93c3.246,3.175,4.823,8.734,4.823,16.995c0,12.274-9.985,22.259-22.259,22.259  c-12.274,0-22.259-9.985-22.259-22.259c0-7.695,1.977-13.951,5.423-17.163c1.908-1.778,4.29-2.62,6.866-2.438  c2.611,0.184,4.038,0.613,5.297,0.992c0.918,0.276,1.702,0.512,2.891,0.628c-0.582-16.339-8.929-30.042-20.268-34.811  c2.165,17.36-5.401,33.079-13.494,42.425c0.499,0.093,1.003,0.155,1.536,0.22c1.329,0.162,2.835,0.346,4.498,1.135  c2.596,1.231,4.34,3.101,5.185,5.557c1.358,3.949,0.336,9.217-3.124,16.104C40.479,86.884,33.213,91.11,25.768,91.111z   M22.402,52.822c-0.452,0-0.915,0.07-1.393,0.209c-3.125,0.91-6.75,4.829-9.463,10.228c-2.052,4.084-2.442,8.694-1.098,12.981  c1.338,4.266,4.235,7.702,8.159,9.673c8.119,4.08,18.164,0.555,22.391-7.857c2.973-5.918,3.963-10.425,2.941-13.395  c-0.534-1.553-1.638-2.708-3.375-3.533l0,0c-1.149-0.545-2.202-0.674-3.421-0.822c-1.442-0.176-3.075-0.375-4.96-1.313  c-0.026-0.013-0.052-0.025-0.078-0.039c-2.265-1.143-3.239-2.082-4.182-2.989c-0.787-0.758-1.531-1.475-3.208-2.476  C23.97,53.043,23.205,52.822,22.402,52.822z M60.9,50.852c-1.439,0-2.678,0.501-3.775,1.524c-2.699,2.515-4.31,7.974-4.31,14.603  c0,10.344,8.416,18.759,18.759,18.759s18.759-8.416,18.759-18.759c0-7.169-1.269-12.045-3.771-14.493  c-1.381-1.351-3.158-1.986-5.439-1.933c-1.474,0.033-2.616,0.429-3.938,0.888c-1.529,0.531-3.263,1.133-5.611,1.133  c-2.844,0-4.286-0.434-5.681-0.853c-1.189-0.358-2.313-0.696-4.535-0.853C61.204,50.858,61.051,50.852,60.9,50.852z M24.637,34.378  c3.974,0.178,13.366-0.509,20.871-9.449c-3.33-1.019-12.502-1.398-15.746,1.272C26.803,28.637,25.31,32.223,24.637,34.378z   M15.683,69.239c-0.817,0-1.548-0.576-1.714-1.409c-0.99-4.968,2.247-9.815,7.215-10.806c0.949-0.188,1.869,0.427,2.058,1.375  c0.189,0.948-0.426,1.869-1.375,2.058c-3.076,0.613-5.079,3.614-4.466,6.689c0.189,0.948-0.426,1.869-1.375,2.058  C15.911,69.228,15.796,69.239,15.683,69.239z M85.751,65.151c-0.136,0-0.273-0.016-0.411-0.049  c-0.939-0.226-1.518-1.171-1.292-2.111c0.355-1.477,0.114-3.004-0.679-4.3s-2.043-2.205-3.52-2.561  c-0.939-0.226-1.518-1.171-1.292-2.111c0.226-0.94,1.169-1.519,2.111-1.292c2.386,0.574,4.405,2.043,5.687,4.137  c1.281,2.093,1.67,4.56,1.095,6.946C87.258,64.612,86.542,65.151,85.751,65.151z"/><text x="0" y="115" fill="#000000" font-size="5px" font-weight="bold" font-family="'Helvetica Neue', Helvetica, Arial-Unicode, Arial, Sans-serif">Created by H Alberto Gongora</text><text x="0" y="120" fill="#000000" font-size="5px" font-weight="bold" font-family="'Helvetica Neue', Helvetica, Arial-Unicode, Arial, Sans-serif">from the Noun Project</text></svg>