<svg xmlns:sodipodi="http://sodipodi.sourceforge.net/DTD/sodipodi-0.dtd" xmlns:rdf="http://www.w3.org/1999/02/22-rdf-syntax-ns#" xmlns:dc="http://purl.org/dc/elements/1.1/" xmlns:svg="http://www.w3.org/2000/svg" xmlns:cc="http://creativecommons.org/ns#" xmlns:inkscape="http://www.inkscape.org/namespaces/inkscape" xmlns="http://www.w3.org/2000/svg" xmlns:xlink="http://www.w3.org/1999/xlink" version="1.1" x="0px" y="0px" viewBox="0 0 800 1000" enable-background="new 0 0 800 800" xml:space="preserve"><g><path fill="#000000" d="M736.725,607.852H63.274c-7.899,0-14.316,6.417-14.316,14.316c0,7.912,6.417,14.315,14.316,14.315h673.45   c7.913,0,14.316-6.403,14.316-14.315C751.041,614.269,744.638,607.852,736.725,607.852z"/><path fill="#000000" d="M99.023,399.054c-26.144,0-47.415,21.275-47.415,47.418c0,26.145,21.271,47.423,47.415,47.423   c26.151,0,47.422-21.278,47.422-47.423c0-7.871-1.958-15.28-5.362-21.823l116.067-116.064c6.634,3.53,14.183,5.55,22.201,5.55   c7.934,0,15.4-1.978,21.971-5.438l119.146,119.153c-3.383,6.516-5.313,13.883-5.313,21.727c0,26.144,21.265,47.422,47.423,47.422   c26.144,0,47.408-21.278,47.408-47.422c0-7.913-1.972-15.352-5.396-21.908l174.674-174.67c6.543,3.404,13.952,5.362,21.823,5.362   c26.144,0,47.408-21.271,47.408-47.422s-21.265-47.422-47.408-47.422s-47.422,21.271-47.422,47.422   c0,7.864,1.957,15.274,5.354,21.81L484.305,407.467c-6.529-3.369-13.896-5.315-21.726-5.315c-7.913,0-15.352,1.975-21.908,5.399   L321.483,288.376c3.355-6.501,5.285-13.854,5.285-21.663c0-26.151-21.265-47.422-47.416-47.422s-47.415,21.271-47.415,47.422   c0,7.717,1.887,14.987,5.173,21.432L120.84,404.419C114.304,401.012,106.894,399.054,99.023,399.054z M99.023,465.263   c-10.359,0-18.783-8.43-18.783-18.79c0-10.359,8.423-18.79,18.783-18.79c10.36,0,18.79,8.431,18.79,18.79   C117.813,456.833,109.383,465.263,99.023,465.263z M701.088,192.148c10.346,0,18.776,8.43,18.776,18.79   c0,10.359-8.431,18.79-18.776,18.79c-10.359,0-18.79-8.431-18.79-18.79C682.298,200.578,690.729,192.148,701.088,192.148z    M462.579,430.787c10.345,0,18.775,8.43,18.775,18.79c0,10.359-8.431,18.789-18.775,18.789c-10.36,0-18.79-8.43-18.79-18.789   C443.789,439.217,452.219,430.787,462.579,430.787z M279.352,247.924c10.36,0,18.783,8.43,18.783,18.79   c0,10.359-8.423,18.79-18.783,18.79s-18.783-8.43-18.783-18.79C260.569,256.354,268.992,247.924,279.352,247.924z"/></g><text x="0" y="815" fill="#000000" font-size="5px" font-weight="bold" font-family="'Helvetica Neue', Helvetica, Arial-Unicode, Arial, Sans-serif">Created by abderraouf omara</text><text x="0" y="820" fill="#000000" font-size="5px" font-weight="bold" font-family="'Helvetica Neue', Helvetica, Arial-Unicode, Arial, Sans-serif">from the Noun Project</text></svg>