<svg xmlns="http://www.w3.org/2000/svg" xmlns:xlink="http://www.w3.org/1999/xlink" version="1.1" x="0px" y="0px" viewBox="0 0 52 65" enable-background="new 0 0 52 52" xml:space="preserve"><g><g><path d="M23.9920425,10.1259537c-0.1274872-0.9718227,0.4582443-3.1341581,1.9648991-1.8699198    c0.3178577,0.266716-0.2706547,1.3946505,0.0496006,1.7421474c0.3622704,0.3930874,0.3249149,0.7396336,0.8302822,1.0965347    c0.8140221,0.5748777,2.4937744,0.1690063,3.3659115,0.151577c2.6780777-0.0535221,4.8779793,0.5118551,7.0416946,2.1209097    c0.0995331-0.7615623,0.1990662-1.5231247,0.2985992-2.284687c-2.242794,0.8618565-4.7729111,0.2911835-6.9070244,1.3398514    c-0.4054623,0.1992388-0.59198,0.657382-0.6191006,1.079339c-0.2267914,3.5285769,3.8200016,4.2867308,3.818037,8.4919958    c0.7112923-0.2946281,1.4225883-0.5892563,2.1338844-0.8838844c-1.5835876-1.6780262-6.1659184-6.1517105-8.9679012-4.4173012    c-0.6646976,0.4114437-0.65942,0.8250942-0.8941498,1.5123711c-0.2843685,0.8326225,0.4614506,3.446682,0.4427261,3.9230576    c-0.0814209,2.0714397-1.3281174,4.082077-2.4166088,5.7547913c0.6544075-0.0843296,1.3088131-0.1686573,1.9632206-0.252985    c-2.655323-3.050209-1.7137661-6.280735-2.3120289-9.8284473c-0.0724659-0.4297237-0.4864902-0.7490597-0.8730488-0.8730507    c-2.991312-0.9594736-5.8048782,2.2728691-8.1238356,3.8844738c0.6269655,0.3597794,1.253932,0.7195587,1.8808985,1.0793381    c-0.3561459-3.0575447,1.2057285-4.7823448,3.1804562-6.761364c0.4966316-0.4977112,0.4508152-1.2627058,0-1.767767    c-1.8043003-2.0214128-3.8824711-1.5208015-6.3846693-2.2279358c0.1838608,0.6964102,0.3677225,1.3928213,0.5515833,2.0892324    c2.6109867-2.0226145,5.1635399-1.8071613,8.0160942-1.6655922c1.6081104,0.0798082,1.6038933-2.4204006,0-2.5    c-3.7691402-0.1870575-6.7645607,0.0589085-9.7838612,2.3978252c-0.7745972,0.6000452-0.2657356,1.8582525,0.5515842,2.0892315    c1.1334276,0.3203135,4.9600487,1.2248726,5.2815018,1.5850058c0-0.5892563,0-1.1785116,0-1.767767    c-2.8221226,2.8282547-4.402523,4.3238583-3.9126892,8.5291309c0.0987215,0.847538,1.017374,1.6794624,1.8808994,1.0793381    c0.5545826-0.3854179,4.6857204-3.7822399,5.1338234-3.5678501c0.5975361,0.2858829,0.4075394,4.1492825,0.5144787,4.6818523    c0.4201946,2.0926247,1.234396,3.7077599,2.6310463,5.3121128c0.5547028,0.6371937,1.5528927,0.3775806,1.9632225-0.252985    c1.1320801-1.7396965,2.3049431-3.5539398,2.6341515-5.6425133c0.0947742-0.6012726-0.2542267-2.784584-0.0653896-3.0167408    c1.5821514-1.9451008,4.4110317,1.4071674,5.3407269,2.3923054c0.7515755,0.7964001,2.1333885,0.1775875,2.1338844-0.8838825    c0.0012894-2.7589893-1.0406113-3.9242115-2.1780472-6.2921667c-0.8625641-1.7957163-2.9665031-1.0609369,0.7438545-1.4650707    c1.3101501-0.1427021,2.035984-0.2548742,3.3068771-0.7432508c1.0535812-0.4048681,1.187809-1.6234236,0.2985992-2.284687    c-2.9667244-2.2062159-3.9141388-2.1738367-7.4670391-2.4789505c-3.1786957-0.2729778-1.5148792,0.0589647-2.6051426-2.2046514    c-0.6071033-1.2604785-0.2590733-1.3855209-1.1978893-2.2119589c-4.122715-3.629215-6.1439819,2.7648182-5.744112,5.8129878    C21.6983261,11.698431,24.2010193,11.7189598,23.9920425,10.1259537L23.9920425,10.1259537z"/></g><g><path d="M36.3674583,14.7959881c6.4966049,5.802454,14.967041,12.91679,7.8786545,21.8090687    c-4.6834602,5.8753319-10.4517784,9.2041092-18.0424328,9.6401329    c-7.1178627,0.4088669-17.2139854-3.1847763-19.7495461-10.584053C3.62042,27.3917942,3.6142814,18.0774727,13.6291265,15.4595528    c1.5552759-0.4065561,0.8958149-2.8185968-0.6645994-2.4106979C3.2097769,15.5987864,0.8618886,24.0699673,3.1296103,33.1752396    c1.0817931,4.3435745,2.4400666,7.8533287,6.2957907,10.3607063c3.9862518,2.5922585,8.0492563,5.2147255,12.8674974,5.2348099    c10.7408161,0.0447693,19.4171772-3.4159164,25.7134037-12.50037c2.1557846-3.1104546,1.9998512-7.9205532,0.7526398-11.4089165    C46.96838,19.853384,41.933403,16.4205704,38.1352272,13.0282211    C36.9385376,11.9593964,35.1644936,13.7215567,36.3674583,14.7959881L36.3674583,14.7959881z"/></g></g><text x="0" y="67" fill="#000000" font-size="5px" font-weight="bold" font-family="'Helvetica Neue', Helvetica, Arial-Unicode, Arial, Sans-serif">Created by Dinosoft Labs</text><text x="0" y="72" fill="#000000" font-size="5px" font-weight="bold" font-family="'Helvetica Neue', Helvetica, Arial-Unicode, Arial, Sans-serif">from the Noun Project</text></svg>